<svg viewBox="0 0 41 40" fill="none" xmlns="http://www.w3.org/2000/svg">
<path fill-rule="evenodd" clip-rule="evenodd" d="M34.0988 34.5876C30.5215 37.9442 25.7091 40 20.4165 40C15.1239 40 10.3115 37.9442 6.7342 34.5876C9.43679 29.8275 14.5516 26.6164 20.4165 26.6164C26.2814 26.6164 31.3962 29.8275 34.0988 34.5876ZM35.9943 32.5443C32.7371 27.3749 26.9779 23.9403 20.4165 23.9403C13.8551 23.9403 8.09593 27.3749 4.8387 32.5443C2.07251 29.1135 0.416504 24.7502 0.416504 20C0.416504 8.9543 9.37081 0 20.4165 0C31.4622 0 40.4165 8.9543 40.4165 20C40.4165 24.7502 38.7605 29.1135 35.9943 32.5443ZM20.4167 19.7544C23.9094 19.7544 26.7408 16.923 26.7408 13.4303C26.7408 9.93761 23.9094 7.10621 20.4167 7.10621C16.924 7.10621 14.0926 9.93761 14.0926 13.4303C14.0926 16.923 16.924 19.7544 20.4167 19.7544ZM20.4167 22.4305C25.3874 22.4305 29.4169 18.401 29.4169 13.4303C29.4169 8.45965 25.3874 4.43013 20.4167 4.43013C15.446 4.43013 11.4165 8.45965 11.4165 13.4303C11.4165 18.401 15.446 22.4305 20.4167 22.4305Z" fill="white"/>
</svg>
