<svg width="40" height="40" viewBox="0 0 40 40" fill="none" xmlns="http://www.w3.org/2000/svg">
<path d="M18.5 37.5C18.5 38.3284 19.1716 39 20 39C20.8284 39 21.5 38.3284 21.5 37.5L18.5 37.5ZM21.0607 1.43934C20.4749 0.853554 19.5251 0.853554 18.9393 1.43934L9.3934 10.9853C8.80761 11.5711 8.80761 12.5208 9.3934 13.1066C9.97919 13.6924 10.9289 13.6924 11.5147 13.1066L20 4.62132L28.4853 13.1066C29.0711 13.6924 30.0208 13.6924 30.6066 13.1066C31.1924 12.5208 31.1924 11.5711 30.6066 10.9853L21.0607 1.43934ZM21.5 37.5L21.5 2.5L18.5 2.5L18.5 37.5L21.5 37.5Z" fill="#F9F9F9"/>
</svg>
