<svg width="41" height="40" viewBox="0 0 41 40" fill="none" xmlns="http://www.w3.org/2000/svg">
<g clip-path="url(#clip0_284_10269)">
<path d="M0.416504 6.47353C0.416504 2.86283 3.34355 -0.064209 6.95424 -0.064209H12.7705C16.3812 -0.064209 19.3083 2.86284 19.3083 6.47353V16.6484C19.3083 17.8519 18.3326 18.8276 17.129 18.8276H6.95424C3.34354 18.8276 0.416504 15.9006 0.416504 12.2899V6.47353Z" fill="#F9F9F9"/>
<path d="M0.416504 27.7106C0.416504 24.0999 3.34355 21.1729 6.95424 21.1729H17.129C18.3326 21.1729 19.3083 22.1485 19.3083 23.3521V33.5269C19.3083 37.1376 16.3812 40.0647 12.7705 40.0647H6.95424C3.34354 40.0647 0.416504 37.1376 0.416504 33.5269V27.7106Z" fill="#F9F9F9"/>
<path d="M21.5249 6.47353C21.5249 2.86283 24.4519 -0.064209 28.0626 -0.064209H33.8789C37.4896 -0.064209 40.4167 2.86284 40.4167 6.47353V12.2899C40.4167 15.9006 37.4896 18.8276 33.8789 18.8276H23.7041C22.5006 18.8276 21.5249 17.8519 21.5249 16.6484V6.47353Z" fill="#F9F9F9"/>
<path d="M21.5249 23.3521C21.5249 22.1485 22.5006 21.1729 23.7041 21.1729H33.8789C37.4896 21.1729 40.4167 24.0999 40.4167 27.7106V33.5269C40.4167 37.1376 37.4896 40.0647 33.8789 40.0647H28.0626C24.4519 40.0647 21.5249 37.1376 21.5249 33.5269V23.3521Z" fill="#F9F9F9"/>
</g>
<defs>
<clipPath id="clip0_284_10269">
<rect width="40" height="40" fill="white" transform="translate(0.416504)"/>
</clipPath>
</defs>
</svg>
