<svg viewBox="0 0 41 40" fill="none" xmlns="http://www.w3.org/2000/svg">
<path fill-rule="evenodd" clip-rule="evenodd" d="M40.4165 20C40.4165 31.0457 31.4622 40 20.4165 40C9.37081 40 0.416504 31.0457 0.416504 20C0.416504 8.9543 9.37081 0 20.4165 0C31.4622 0 40.4165 8.9543 40.4165 20ZM26.6145 11.2501C27.3193 10.5453 28.4619 10.5453 29.1666 11.2501C29.8713 11.9548 29.8713 13.0974 29.1666 13.8021L22.9686 20.0002L29.1664 26.198C29.8711 26.9027 29.8711 28.0453 29.1664 28.7501C28.4617 29.4548 27.3191 29.4548 26.6143 28.7501L20.4165 22.5522L14.2187 28.7501C13.5139 29.4548 12.3713 29.4548 11.6666 28.7501C10.9619 28.0453 10.9619 26.9027 11.6666 26.198L17.8644 20.0002L11.6664 13.8021C10.9617 13.0974 10.9617 11.9548 11.6664 11.2501C12.3711 10.5453 13.5137 10.5453 14.2185 11.2501L20.4165 17.4481L26.6145 11.2501Z" fill="white"/>
</svg>
