<svg width="41" height="40" viewBox="0 0 41 40" fill="none" xmlns="http://www.w3.org/2000/svg">
<path d="M19.8314 32.4324C19.4504 32.4324 19.1266 32.3181 18.8599 32.0895C18.6314 31.8229 18.5171 31.4991 18.5171 31.1181L14.5171 1.31429C14.5171 0.933334 14.6314 0.628572 14.8599 0.400002C15.1266 0.133334 15.4504 0 15.8314 0H25.059C25.44 0 25.7448 0.133334 25.9733 0.400002C26.2019 0.628572 26.3162 0.933334 26.3162 1.31429L22.3162 31.1181C22.3162 31.4991 22.2019 31.8229 21.9733 32.0895C21.7448 32.3181 21.44 32.4324 21.059 32.4324H19.8314Z" fill="white"/>
<path d="M18.5219 39.7643C18.7053 39.9215 18.928 40.0001 19.19 40.0001H21.6041C21.8923 40.0001 22.115 39.9215 22.2722 39.7643C22.4556 39.5809 22.5473 39.3582 22.5473 39.0962V36.6988C22.5473 36.4368 22.4556 36.2272 22.2722 36.07C22.115 35.8866 21.8923 35.7949 21.6041 35.7949H19.19C18.928 35.7949 18.7053 35.8866 18.5219 36.07C18.3647 36.2272 18.2861 36.4368 18.2861 36.6988V39.0962C18.2861 39.3582 18.3647 39.5809 18.5219 39.7643Z" fill="white"/>
</svg>
