<svg width="41" height="40" viewBox="0 0 41 40" fill="none" xmlns="http://www.w3.org/2000/svg">
<g clip-path="url(#clip0_230_3182)">
<path d="M20.4165 0C9.37105 0 0.416504 8.95455 0.416504 20C0.416504 30.0273 7.80287 38.3064 17.4274 39.7527V25.3009H12.4792V20.0436H17.4274V16.5455C17.4274 10.7536 20.2492 8.21091 25.0629 8.21091C27.3683 8.21091 28.5874 8.38182 29.1647 8.46V13.0491H25.8811C23.8374 13.0491 23.1238 14.9864 23.1238 17.17V20.0436H29.1129L28.3001 25.3009H23.1238V39.7955C32.8856 38.4709 40.4165 30.1245 40.4165 20C40.4165 8.95455 31.462 0 20.4165 0Z" fill="#F9F9F9"/>
</g>
<defs>
<clipPath id="clip0_230_3182">
<rect width="40" height="40" fill="white" transform="translate(0.416504)"/>
</clipPath>
</defs>
</svg>
