<svg viewBox="0 0 41 40" fill="none" xmlns="http://www.w3.org/2000/svg">
<path d="M29.9333 4.24245C26.12 4.24892 22.6293 7.17143 21.3606 8.63187C20.8223 9.12766 19.994 9.12908 19.454 8.6351C18.1804 7.17897 14.6799 4.26834 10.8666 4.27481C7.05324 4.28128 4.4535 5.75712 2.29388 8.66422C-0.432997 12.3349 0.0190707 16.5428 2.31295 20.0388C4.33551 23.1213 13.1832 30.0469 18.5197 34.2356C19.6539 35.1258 21.2495 35.1231 22.3807 34.229C27.7031 30.0223 36.5276 23.0667 38.5398 19.9774C40.8219 16.4736 41.2599 12.2642 38.5207 8.60275C36.3514 5.703 33.7467 4.23598 29.9333 4.24245Z" fill="#F9F9F9"/>
</svg>
