<svg width="41" height="40" viewBox="0 0 41 40" fill="none" xmlns="http://www.w3.org/2000/svg">
<path fill-rule="evenodd" clip-rule="evenodd" d="M20.4165 40C31.4622 40 40.4165 31.0457 40.4165 20C40.4165 8.9543 31.4622 0 20.4165 0C9.37081 0 0.416504 8.9543 0.416504 20C0.416504 31.0457 9.37081 40 20.4165 40ZM9.89468 32.2357C10.1014 32.4119 10.3524 32.5 10.6477 32.5H11.9544C12.2497 32.5 12.486 32.4119 12.6631 32.2357C12.8403 32.0302 12.9289 31.7806 12.9289 31.4869V8.5131C12.9289 8.21945 12.8403 7.98453 12.6631 7.80833C12.486 7.60278 12.2497 7.5 11.9544 7.5H10.6477C10.3524 7.5 10.1014 7.60278 9.89468 7.80833C9.7175 7.98453 9.62891 8.21945 9.62891 8.5131V31.4869C9.62891 31.7806 9.7175 32.0302 9.89468 32.2357ZM15.9006 20.6133C15.2953 20.008 15.2953 19.0266 15.9006 18.4213L22.9006 11.4213C23.5059 10.816 24.4873 10.816 25.0926 11.4213C25.6979 12.0266 25.6979 13.008 25.0926 13.6133L20.7386 17.9673H34.4966C35.3526 17.9673 36.0466 18.6613 36.0466 19.5173C36.0466 20.3734 35.3526 21.0673 34.4966 21.0673H20.7386L25.5926 25.9213C26.1979 26.5266 26.1979 27.508 25.5926 28.1133C24.9873 28.7187 24.0059 28.7187 23.4006 28.1133L15.9006 20.6133Z" fill="white"/>
</svg>
