<svg width="41" height="40" viewBox="0 0 41 40" fill="none" xmlns="http://www.w3.org/2000/svg">
<path fill-rule="evenodd" clip-rule="evenodd" d="M18.8329 0.757231C14.199 1.13976 9.80877 3.24957 6.53059 6.6694C6.09328 7.12566 5.56843 7.79697 5.16863 8.33156C4.82492 8.79117 4.95832 9.43922 5.44964 9.73584C6.04358 10.0944 6.87853 10.5926 7.79268 11.12C9.36785 12.0288 10.206 12.4588 10.6451 12.6622C10.9299 12.7942 11.2274 12.7042 11.4348 12.4685C11.8075 12.0449 12.4101 11.3767 12.7605 11.076C15.1105 9.05855 18.0055 8.04804 21.0008 8.19982C22.6186 8.28179 24.11 8.66747 25.5473 9.37553C26.2024 9.69822 26.7036 10.0133 27.8815 10.8427C28.1777 11.0513 28.6166 11.0996 28.6166 11.0996C28.6166 11.0996 29.0781 11.0512 29.1896 10.992C29.4332 10.8627 33.2017 7.15247 33.3225 6.84878C33.436 6.46887 33.3834 5.98889 33.0649 5.547C32.7615 4.96049 31.0114 3.75756 29.2561 2.84769C26.0427 1.18183 22.4405 0.459365 18.8329 0.757231ZM2.46919 12.9951C0.305469 17.934 0.292023 21.9225 2.52814 26.77C2.60392 26.9343 2.72511 27.1678 2.85106 27.4028C3.11487 27.8949 3.73555 28.0605 4.21779 27.779C4.79707 27.4409 5.6075 26.9698 6.47433 26.4718C7.48924 25.8888 8.42506 25.3395 9.00347 24.9981C9.36391 24.7853 9.55172 24.37 9.44599 23.965C9.38784 23.7423 9.31343 23.4827 9.22279 23.2147C8.74876 21.8132 8.52094 21.2991 8.52094 19.7268C8.52094 18.1546 8.77937 17.9959 9.2534 16.5944C9.39886 16.244 9.48361 15.9265 9.53299 15.6754C9.60188 15.3251 9.41168 14.9936 9.10269 14.8149L4.12977 11.9381C3.68649 11.6816 3.11987 11.8015 2.86012 12.2428C2.72431 12.4736 2.58305 12.7353 2.46919 12.9951ZM21.9436 16.699C21.6298 16.8536 21.4245 17.1145 21.3244 17.486C21.2743 17.6724 21.2538 18.7497 21.268 20.4571C21.2891 23.0024 21.2979 23.1487 21.4443 23.3979C21.5291 23.5421 21.7113 23.7361 21.8493 23.8291L22.1001 23.9981H26.7026C30.4693 23.9981 31.305 24.0161 31.305 24.0973C31.305 24.2914 30.6108 25.6217 30.1437 26.3228C29.5411 27.2272 29.4577 27.302 28.7998 28.0431C28.648 28.1715 28.3197 28.4542 28.0188 28.7139C27.6568 29.0264 27.5676 29.5516 27.8054 29.9665L30.4748 34.625C30.7888 35.1731 31.5245 35.2941 32.0096 34.8896C32.1488 34.7735 32.2729 34.6726 32.3549 34.6113C36.5759 31.4563 38.7111 27.4997 39.4548 22.3108C39.6058 21.2566 39.6295 18.5488 39.4944 17.7746C39.401 17.2397 39.3354 16.7787 38.6345 16.574L30.4125 16.5757C22.9824 16.5772 22.1667 16.5891 21.9436 16.699ZM7.83627 28.6008C6.96654 29.102 6.15818 29.5752 5.56563 29.9241C5.04691 30.2295 4.91774 30.9206 5.28466 31.3978C5.42439 31.5795 5.55701 31.7534 5.65111 31.8796C8.79433 36.0963 12.6753 38.14 17.9145 38.8922C19.0093 39.0494 21.5542 39.072 22.603 38.934C24.2161 38.7216 25.7847 38.3235 27.2235 37.761C27.5956 37.6156 27.8909 37.4784 28.1205 37.3589C28.5378 37.1419 28.6331 36.6401 28.3978 36.2329L25.6206 31.4265C25.3767 31.0043 24.8638 30.8196 24.4066 30.9894L23.7489 31.2337C20.7485 32.2473 17.9042 31.9273 15.0328 30.5115C13.4939 29.7527 13.0163 29.1649 12.0917 27.895L11.555 27.3354C11.2365 27.0034 10.7326 26.9315 10.334 27.1612L7.83627 28.6008Z" fill="#F9F9F9"/>
</svg>
