<svg viewBox="0 0 41 40" fill="none" xmlns="http://www.w3.org/2000/svg">
<g clip-path="url(#clip0_258_3128)">
<rect width="35.7599" height="23.1159" rx="2.19861" transform="matrix(0.961362 0.275289 -0.2432 0.969976 6.03809 3.86694)" fill="#F9F9F9"/>
<rect x="2.62158" y="8.39355" width="35.5909" height="23.2128" rx="2.19861" fill="#181818"/>
<path fill-rule="evenodd" clip-rule="evenodd" d="M5.60938 9.77588C4.78095 9.77588 4.10938 10.4475 4.10938 11.2759V28.7241C4.10938 29.5525 4.78095 30.2241 5.60937 30.2241H35.2243C36.0527 30.2241 36.7243 29.5525 36.7243 28.7241V11.2759C36.7243 10.4475 36.0527 9.77588 35.2243 9.77588H5.60938ZM16.0875 16.8094C15.6878 16.2677 14.878 16.2677 14.4783 16.8094L7.00536 26.9356C6.51816 27.5958 6.98949 28.5294 7.80998 28.5294H22.7559C22.8182 28.5294 22.8785 28.524 22.9365 28.5138H26.7156C27.5361 28.5138 28.0074 27.5801 27.5202 26.92L22.6543 20.3264C22.2546 19.7848 21.4448 19.7848 21.0451 20.3264L19.8641 21.9267L16.0875 16.8094ZM31.105 15.3003C31.105 16.7801 29.9054 17.9798 28.4256 17.9798C26.9457 17.9798 25.7461 16.7801 25.7461 15.3003C25.7461 13.8205 26.9457 12.6209 28.4256 12.6209C29.9054 12.6209 31.105 13.8205 31.105 15.3003Z" fill="#F9F9F9"/>
</g>
<defs>
<clipPath id="clip0_258_3128">
<rect width="40" height="40" fill="white" transform="translate(0.416504)"/>
</clipPath>
</defs>
</svg>
