<svg width="41" height="40" viewBox="0 0 41 40" fill="none" xmlns="http://www.w3.org/2000/svg">
<g clip-path="url(#clip0_818_16342)">
<path fill-rule="evenodd" clip-rule="evenodd" d="M4.9165 6C2.70737 6 0.916504 7.79086 0.916504 10V30C0.916504 32.2091 2.70736 34 4.9165 34H35.9165C38.1256 34 39.9165 32.2091 39.9165 30V10C39.9165 7.79086 38.1256 6 35.9165 6H4.9165ZM23.3321 16.7685C23.7652 16.3589 24.4429 16.3589 24.8761 16.7685L37.1977 28.4226C37.9359 29.1208 37.4418 30.3623 36.4257 30.3623H16.0579C16.0092 30.3685 15.9591 30.3717 15.9077 30.3717H4.77437C3.80167 30.3717 3.28863 29.2195 3.93941 28.4966L9.50609 22.3128C9.95236 21.817 10.7298 21.817 11.176 22.3128L14.0706 25.5283L23.3321 16.7685ZM9.9063 14.2602C9.9063 16.1263 11.4191 17.6391 13.2852 17.6391C15.1513 17.6391 16.6641 16.1263 16.6641 14.2602C16.6641 12.3941 15.1513 10.8813 13.2852 10.8813C11.4191 10.8813 9.9063 12.3941 9.9063 14.2602Z" fill="#F9F9F9"/>
</g>
<defs>
<clipPath id="clip0_818_16342">
<rect width="40" height="40" fill="white" transform="translate(0.416504)"/>
</clipPath>
</defs>
</svg>
