<svg width="41" height="40" viewBox="0 0 41 40" fill="none" xmlns="http://www.w3.org/2000/svg">
<g clip-path="url(#clip0_230_3183)">
<path fill-rule="evenodd" clip-rule="evenodd" d="M20.4165 40C31.4622 40 40.4165 31.0457 40.4165 20C40.4165 8.9543 31.4622 0 20.4165 0C9.37081 0 0.416504 8.9543 0.416504 20C0.416504 31.0457 9.37081 40 20.4165 40ZM11.9165 7.5C9.70737 7.5 7.9165 9.29086 7.9165 11.5V28.5C7.9165 30.7091 9.70737 32.5 11.9165 32.5H28.9165C31.1256 32.5 32.9165 30.7091 32.9165 28.5V11.5C32.9165 9.29086 31.1256 7.5 28.9165 7.5H11.9165Z" fill="#F9F9F9"/>
<path d="M29.0671 14.242C29.6995 13.6096 29.6995 12.5843 29.0671 11.9518C28.4347 11.3194 27.4093 11.3194 26.7769 11.9519C26.1445 12.5843 26.1445 13.6096 26.7769 14.242C27.4093 14.8744 28.4346 14.8744 29.0671 14.242Z" fill="white"/>
<path d="M20.4165 13.0684C16.5874 13.0684 13.4849 16.1709 13.4849 20C13.4849 23.829 16.5874 26.9316 20.4165 26.9316C24.2455 26.9316 27.3481 23.829 27.3481 20C27.3481 16.1709 24.2455 13.0684 20.4165 13.0684ZM20.4165 24.5C17.9294 24.5 15.9165 22.4871 15.9165 20C15.9165 17.5129 17.9294 15.5 20.4165 15.5C22.9036 15.5 24.9165 17.5129 24.9165 20C24.9165 22.4871 22.9036 24.5 20.4165 24.5Z" fill="white"/>
</g>
<defs>
<clipPath id="clip0_230_3183">
<rect width="40" height="40" fill="white" transform="translate(0.416504)"/>
</clipPath>
</defs>
</svg>
