<svg width="41" height="40" viewBox="0 0 41 40" fill="none" xmlns="http://www.w3.org/2000/svg">
<path fill-rule="evenodd" clip-rule="evenodd" d="M7.09535 14.5341C6.86654 15.3881 6.98632 16.2979 7.42835 17.0635L19.6547 38.2401C20.1149 39.0373 21.1342 39.3104 21.9314 38.8502L37.8085 29.6835C38.6057 29.2233 38.8788 28.204 38.4185 27.4068L26.1922 6.23021C25.7502 5.4646 25.0221 4.90594 24.1682 4.67713L12.3131 1.50057C11.424 1.26233 10.5101 1.78997 10.2719 2.67908L7.09535 14.5341ZM20.2866 17.668C22.2795 16.5174 22.9623 13.9691 21.8117 11.9763C20.6611 9.98337 18.1128 9.30056 16.1199 10.4512C14.127 11.6017 13.4442 14.15 14.5948 16.1429C15.7454 18.1358 18.2937 18.8186 20.2866 17.668Z" fill="#F9F9F9"/>
</svg>
