<svg width="41" height="40" viewBox="0 0 41 40" fill="none" xmlns="http://www.w3.org/2000/svg">
<path d="M21.2267 0.8564C20.7793 0.408924 20.0538 0.408924 19.6063 0.8564L12.3142 8.14844C11.8668 8.59591 11.8668 9.32141 12.3142 9.76889C12.7617 10.2164 13.4872 10.2164 13.9347 9.76889L20.4165 3.28708L26.8983 9.76889C27.3458 10.2164 28.0713 10.2164 28.5188 9.76889C28.9662 9.32142 28.9662 8.59591 28.5188 8.14844L21.2267 0.8564ZM19.6063 39.1435C20.0538 39.591 20.7793 39.591 21.2267 39.1435L28.5188 31.8515C28.9662 31.404 28.9662 30.6785 28.5188 30.231C28.0713 29.7836 27.3458 29.7836 26.8983 30.231L20.4165 36.7128L13.9347 30.231C13.4872 29.7836 12.7617 29.7836 12.3142 30.231C11.8668 30.6785 11.8668 31.404 12.3142 31.8515L19.6063 39.1435ZM19.2707 1.66663L19.2707 38.3333L21.5623 38.3333L21.5623 1.66663L19.2707 1.66663Z" fill="#F9F9F9"/>
<path d="M1.27278 19.1898C0.825306 19.6372 0.825306 20.3628 1.27278 20.8102L8.56482 28.1023C9.0123 28.5497 9.7378 28.5497 10.1853 28.1023C10.6327 27.6548 10.6327 26.9293 10.1853 26.4818L3.70346 20L10.1853 13.5182C10.6327 13.0707 10.6327 12.3452 10.1853 11.8977C9.7378 11.4503 9.0123 11.4503 8.56482 11.8977L1.27278 19.1898ZM39.5599 20.8102C40.0074 20.3628 40.0074 19.6372 39.5599 19.1898L32.2679 11.8977C31.8204 11.4503 31.0949 11.4503 30.6474 11.8977C30.1999 12.3452 30.1999 13.0707 30.6474 13.5182L37.1292 20L30.6474 26.4818C30.1999 26.9293 30.1999 27.6548 30.6474 28.1023C31.0949 28.5497 31.8204 28.5497 32.2679 28.1023L39.5599 20.8102ZM2.08301 21.1458L38.7497 21.1458L38.7497 18.8542L2.08301 18.8542L2.08301 21.1458Z" fill="#F9F9F9"/>
</svg>
