<svg viewBox="0 0 41 40" fill="none" xmlns="http://www.w3.org/2000/svg">
<path d="M36.4259 29.8508C34.5399 28.0418 31.8577 24.2878 31.8577 17.5642V14.8824C31.8577 9.17715 27.6821 4.44728 22.2203 3.58249V1.80377C22.2203 0.807608 21.4126 0 20.4165 0C19.4203 0 18.6127 0.807608 18.6127 1.80377V3.58344C13.1419 4.45531 8.97529 9.23055 8.97529 14.9443V17.5642C8.97529 24.2878 6.29303 28.0423 4.40703 29.8508C3.25445 30.9556 2.5957 31.5042 2.5957 33.1005H38.2373C38.2373 31.5042 37.578 30.9556 36.4259 29.8508Z" fill="#F9F9F9"/>
<path d="M20.4157 39.9999C23.0077 39.9999 25.1087 37.8989 25.1087 35.3069H15.7231C15.7231 37.8989 17.8242 39.9999 20.4162 39.9999H20.4157Z" fill="#F9F9F9"/>
</svg>
