<svg width="41" height="40" viewBox="0 0 41 40" fill="none" xmlns="http://www.w3.org/2000/svg">
<path fill-rule="evenodd" clip-rule="evenodd" d="M21.5955 39.5681C25.0646 36.6316 34.9964 27.1298 34.9964 14.5797C34.9964 6.5276 28.4688 0 20.4167 0C12.3645 0 5.83691 6.5276 5.83691 14.5797C5.83691 27.1298 15.7687 36.6316 19.2378 39.5681C19.9182 40.144 20.9151 40.144 21.5955 39.5681ZM30.9027 14.6125C30.9027 20.4037 26.208 25.0985 20.4167 25.0985C14.6255 25.0985 9.93073 20.4037 9.93073 14.6125C9.93073 8.82123 14.6255 4.12649 20.4167 4.12649C26.208 4.12649 30.9027 8.82123 30.9027 14.6125Z" fill="#F9F9F9"/>
</svg>
