<svg width="40" height="40" viewBox="0 0 40 40" fill="none" xmlns="http://www.w3.org/2000/svg">
<g clip-path="url(#clip0_1404_57834)">
<path fill-rule="evenodd" clip-rule="evenodd" d="M27.4187 1.3746C25.6878 3.13562 23.6391 4.43132 21.0936 5.37492C19.9369 5.80367 18.813 6.12804 15.7471 6.91796C11.941 7.89859 10.0837 8.64218 8.07639 9.9889C7.11991 10.6307 5.77045 11.7791 5.34311 12.3149L5.10045 12.6191L9.1592 20.0401C11.3915 24.1216 13.2319 27.4753 13.2488 27.4928C13.2658 27.5103 13.5876 27.2144 13.964 26.8353C16.4243 24.3569 18.8255 23.1859 24.3748 21.7582C27.202 21.0309 28.5182 20.6395 29.6873 20.1785C31.9796 19.2748 33.6182 18.2303 35.3047 16.598L36.1205 15.8085L32.0708 8.39257C29.8435 4.31382 27.9991 0.950619 27.9722 0.918901C27.9454 0.887104 27.6962 1.09218 27.4187 1.3746ZM17.7763 9.25788C17.8472 9.71429 18.2588 12.9273 18.2485 12.9439C18.2437 12.9517 17.2735 13.0498 16.0925 13.1618C14.9115 13.2739 13.8483 13.3905 13.73 13.4211C13.5537 13.4666 13.9778 13.6375 16.0808 14.3681L18.6469 15.2596L18.9081 17.2418L19.1693 19.2241L19.6041 18.8121C19.8433 18.5855 20.4662 17.9818 20.9883 17.4705L21.9379 16.5409L24.4649 17.4829C25.8548 18.001 27.0623 18.4516 27.1483 18.4841C27.2342 18.5167 26.5 17.7101 25.5166 16.6919L23.7287 14.8404L23.876 14.6682C23.957 14.5735 24.4777 13.9855 25.0332 13.3613C25.5887 12.7373 26.1067 12.1546 26.1844 12.0666C26.32 11.913 26.2277 11.9198 23.8854 12.2351L21.4451 12.5636L20.3123 11.4573C19.6893 10.8487 18.8529 10.0347 18.4537 9.64812L17.7277 8.94538L17.7763 9.25788ZM2.63491 13.8902C2.13202 14.16 1.95795 14.2923 1.981 14.3869C2.00827 14.499 15.9808 39.8989 16.0701 39.9987C16.1215 40.0561 17.4309 39.3497 17.4758 39.2404C17.5125 39.1509 3.44381 13.5192 3.3592 13.5215C3.33772 13.5221 3.01178 13.688 2.63491 13.8902Z" fill="#FFC300"/>
</g>
<defs>
<clipPath id="clip0_1404_57834">
<rect width="40" height="40" fill="white"/>
</clipPath>
</defs>
</svg>
