<svg width="41" height="40" viewBox="0 0 41 40" fill="none" xmlns="http://www.w3.org/2000/svg">
<path d="M34.082 12.6372H6.74861L8.00174 36.9539C8.08972 38.661 9.49956 40.0001 11.209 40.0001H29.6217C31.3311 40.0001 32.7409 38.661 32.8289 36.9539L34.082 12.6372Z" fill="white"/>
<path d="M35.9284 9.06308C35.9284 6.4026 33.7716 4.24585 31.1111 4.24585H9.723C7.06251 4.24585 4.90576 6.4026 4.90576 9.06308V10.2488H35.9284V9.06308Z" fill="#F9F9F9"/>
<path fill-rule="evenodd" clip-rule="evenodd" d="M15.0317 5.38489C15.0317 2.41075 17.4425 -2.59959e-07 20.4166 0L20.4161 0C23.3902 2.60007e-07 25.801 2.41075 25.801 5.38489L15.0317 5.38489ZM17.7347 4.94855C17.7347 3.46745 18.9352 2.26692 20.4163 2.26692H20.416C21.8971 2.26692 23.0977 3.46746 23.0977 4.94855L17.7347 4.94855Z" fill="#F9F9F9"/>
</svg>
