<svg width="40" height="40" viewBox="0 0 40 40" fill="none" xmlns="http://www.w3.org/2000/svg">
<g clip-path="url(#clip0_699_10142)">
<path d="M17.1256 23.9632C17.441 24.2275 17.8278 24.436 18.2562 24.5892C19.4317 25.0094 20.9195 25.0104 22.0971 24.5894C22.5251 24.4366 22.9119 24.2277 23.2281 23.9632C23.7207 23.549 24.0491 22.9111 24.0769 22.281C24.0875 22.0633 24.0615 21.8474 23.9939 21.6421C21.5559 22.7342 18.79 22.7291 16.3599 21.6414C16.291 21.851 16.2649 22.0717 16.2758 22.2937C16.3087 22.919 16.6371 23.5528 17.1259 23.9632H17.1256Z" fill="#F9F9F9"/>
<path d="M22.0767 25.2967C22.081 25.0607 22.0881 24.8248 22.0974 24.5891C20.9198 25.0101 19.4321 25.0091 18.2565 24.5889C18.298 25.6149 18.294 26.6477 18.2173 27.6683C19.3425 26.6682 20.67 25.8751 22.0769 25.2967H22.0767Z" fill="#F9F9F9"/>
<path d="M10.2949 37.844C10.3367 37.9146 10.3845 37.9842 10.4377 38.0548C10.482 38.1217 10.5349 38.1849 10.5944 38.2429C10.7346 38.3806 10.9101 38.4968 11.1009 38.594C11.2903 38.6912 11.4925 38.7682 11.6857 38.8289C14.4427 39.6891 17.3348 40.1033 20.2219 40.0678C23.109 40.1033 26.0024 39.6889 28.7581 38.8289C29.0991 38.7216 29.4717 38.5624 29.7469 38.3363C29.9717 38.1935 30.1195 38.0004 30.2104 37.7832C27.2628 38.959 24.0724 39.5349 20.895 39.5676C17.2994 39.6056 13.7164 38.9639 10.2952 37.8437L10.2949 37.844Z" fill="#F9F9F9"/>
<path fill-rule="evenodd" clip-rule="evenodd" d="M37.1093 6.94395C36.8554 5.90075 36.3517 5.08994 35.691 4.54062C34.4481 3.50628 32.6515 3.39211 30.9223 4.37532C30.9808 4.08193 31.0466 3.78929 31.1215 3.49742C31.1294 3.46679 31.1149 3.4435 31.0937 3.43135C31.2838 2.779 31.5263 2.1426 31.8397 1.52823C21.4158 -1.51682 10.0216 1.08219 8.5139 1.52823C8.74578 1.98287 8.93892 2.44941 9.10068 2.92582C9.07081 2.93241 9.04575 2.95899 9.05663 2.99746C9.18118 3.44249 9.28269 3.88979 9.36673 4.33912C7.59955 3.36325 5.77085 3.52856 4.54033 4.64694C3.94038 5.19246 3.48194 5.96556 3.24323 6.9442C2.59923 9.58498 3.24829 12.5452 5.02155 14.5901C5.18584 14.7807 5.36 14.964 5.54429 15.1369C7.08567 16.5884 9.28016 17.3225 11.3752 17.141C11.9078 18.2305 12.6287 19.2041 13.6026 19.8906C13.638 19.9155 13.676 19.9023 13.699 19.875C14.0901 20.2357 14.5091 20.5663 14.951 20.862C15.4037 21.1647 15.875 21.4247 16.3595 21.6416C16.2907 21.8512 16.2646 22.072 16.2755 22.294C16.3084 22.9192 16.6367 23.5531 17.1255 23.9635C17.441 24.2277 17.8278 24.4363 18.2561 24.5895C18.2976 25.6155 18.2935 26.6483 18.2168 27.6689C18.1347 28.7629 17.9692 29.8426 17.687 30.8834C19.1264 31.1746 20.9354 31.3033 22.6823 30.9396C22.1842 29.1345 22.0402 27.2103 22.0767 25.2965C22.0811 25.0606 22.0881 24.8246 22.0975 24.589C22.5256 24.4361 22.9124 24.2272 23.2285 23.9627C23.7212 23.5486 24.0495 22.9106 24.0773 22.2806C24.088 22.0629 24.0619 21.8469 23.9943 21.6416C24.4783 21.4247 24.9497 21.1647 25.4028 20.8612C26.008 20.4562 26.57 19.9861 27.0763 19.4623C27.0981 19.479 27.1272 19.4831 27.1568 19.4621C27.9496 18.8953 28.5379 18.0708 28.9774 17.1403C31.0727 17.3223 33.2679 16.5884 34.8098 15.1364C35.1356 14.8296 35.43 14.4962 35.6938 14.14L35.695 14.1388C37.1916 12.1245 37.7083 9.39639 37.1096 6.9437L37.1093 6.94395ZM14.5529 32.1683C14.7428 32.0832 14.9351 32.0055 15.1296 31.9346C16.209 32.5753 18.0968 33 20.2453 33C22.3604 33 24.2229 32.5885 25.3102 31.9644C25.4908 32.0336 25.6696 32.1081 25.8463 32.1883C27.3398 32.866 28.6815 33.8866 29.7039 35.1716C29.8297 35.3298 29.9543 35.5004 30.032 35.6849C30.032 35.6849 30.5762 36.9195 30.2099 37.7832C30.1191 38.0004 29.9712 38.1936 29.7464 38.3364C29.4713 38.5624 29.0987 38.7216 28.7577 38.829C26.002 39.6889 23.1086 40.1033 20.2215 40.0679C17.3344 40.1033 14.4422 39.6891 11.6853 38.829C11.4921 38.7682 11.2899 38.6913 11.1005 38.5941C10.9096 38.4968 10.7342 38.3807 10.594 38.2429C10.5345 38.185 10.4816 38.1217 10.4373 38.0549C10.3841 37.9842 10.3363 37.9146 10.2945 37.844C9.79151 37.0074 10.0677 36.2024 10.2841 35.7877C10.3542 35.5634 10.5011 35.3589 10.6499 35.1718C11.6825 33.874 13.0411 32.8457 14.5529 32.1683ZM9.8515 14.0719C9.6457 14.0466 9.44116 14.0038 9.24269 13.9443C8.28151 13.6563 7.44943 13.0135 6.82671 12.2268C5.92881 11.0927 5.35165 9.45082 5.95539 8.05145C6.43914 6.93256 7.50994 6.4045 8.61262 6.85535C8.69211 6.88826 8.77312 6.92598 8.85387 6.97028C9.15333 7.13203 9.45078 7.33379 9.73657 7.56491C9.76684 8.03364 9.79145 8.50305 9.81606 8.97259C9.88678 10.3215 9.95756 11.6715 10.1626 13.0097C10.2173 13.3669 10.2834 13.7332 10.3628 14.1031C10.1922 14.1043 10.0211 14.0939 9.8515 14.0717V14.0719ZM10.256 12.3182C10.1545 11.4387 10.1008 10.5535 10.0548 9.66776C10.1358 11.0522 10.2305 12.4338 10.4818 13.7692C10.3861 13.2885 10.3122 12.8032 10.2563 12.3182H10.256ZM33.5276 12.2268C32.9036 13.0135 32.0728 13.6565 31.1116 13.9443C30.8552 14.0213 30.5886 14.0707 30.3211 14.0909C30.1877 14.1018 30.0535 14.1053 29.9198 14.1015C30.0163 13.6051 30.0895 13.1214 30.1464 12.669C30.29 11.5299 30.3546 10.3842 30.4192 9.23922V9.23919L30.4192 9.23894C30.4491 8.70856 30.479 8.17832 30.5168 7.64895C30.8332 7.38265 31.1658 7.15178 31.5007 6.97053C31.5146 6.96294 31.5286 6.95534 31.5425 6.95028C32.7133 6.34274 33.8866 6.86446 34.3979 8.05145C35.0029 9.45082 34.4258 11.0927 33.5279 12.2268H33.5276ZM24.6288 7.7157C24.9801 7.83797 25.3211 7.98353 25.6482 8.16478C26.4329 8.59866 26.3218 9.37303 25.9074 10.0451C25.694 10.3902 25.4576 10.7225 25.2016 11.0377C24.8842 11.4283 24.5354 11.7938 24.1587 12.1295C24.2934 13.1198 24.3691 14.1194 24.1807 15.0956C24.0926 15.5484 23.8468 15.8038 23.5238 15.9195C23.2183 16.0281 22.8456 16.0132 22.473 15.9226C21.5883 15.7074 20.7352 15.3624 19.9489 14.9032C19.0485 15.3381 18.122 15.7185 17.1358 15.8406C16.2455 15.9507 15.8799 15.2583 15.821 14.4721C15.7524 13.5638 15.8161 12.6459 16.0101 11.7566C15.3192 11.0352 14.6709 10.2709 14.2494 9.37049C13.8981 8.61993 14.3375 8.08428 14.9828 7.76988C15.0355 7.74482 15.0899 7.72026 15.1451 7.69748C15.987 7.35143 16.8796 7.12943 17.7856 7.0388C18.2582 6.15812 18.7845 5.30554 19.5108 4.62661C20.1661 4.01451 20.8678 4.35955 21.3784 4.96152C21.9678 5.65563 22.4553 6.43557 22.8216 7.26891C23.4352 7.38004 24.045 7.51395 24.6288 7.7157Z" fill="#F9F9F9"/>
</g>
<defs>
<clipPath id="clip0_699_10142">
<rect width="40" height="40" fill="white"/>
</clipPath>
</defs>
</svg>
