<svg width="41" height="40" viewBox="0 0 41 40" fill="none" xmlns="http://www.w3.org/2000/svg">
<g clip-path="url(#clip0_1351_12757)">
<path fill-rule="evenodd" clip-rule="evenodd" d="M7.03793 5.10929C10.1575 2.33187 13.7376 0.684682 17.8773 0.122182C18.5237 0.0343949 19.0626 0.54864 19.0626 1.20093V5.406C19.0626 6.41809 18.3016 7.26044 17.3238 7.52148C15.8557 7.91339 14.3416 8.56597 13.1356 9.38585C12.2221 10.0069 10.5324 11.677 9.90598 12.578C8.77223 14.209 7.99668 16.1789 7.67629 18.2421C7.55348 19.0334 7.5716 21.084 7.70887 21.9165C8.63949 27.5621 12.8542 31.7768 18.4998 32.7074C19.3323 32.8447 21.3829 32.8628 22.1742 32.74C24.2374 32.4196 26.2073 31.6441 27.8382 30.5103C28.7393 29.8839 30.4094 28.1942 31.0304 27.2807C31.8464 26.0805 32.4827 24.6267 32.867 23.1953C33.1295 22.2179 33.9703 21.4566 34.9824 21.4566H38.1207C39.3278 21.4566 40.2689 22.5201 40.0375 23.7048C39.671 25.5807 39.1451 27.3077 38.3468 28.9151C35.679 34.2869 30.6418 38.2312 24.7914 39.5296C22.1701 40.1114 19.0187 40.14 16.4289 39.6055C11.1943 38.5255 6.61941 35.4069 3.6473 30.8928C2.3241 28.8831 1.31301 26.4217 0.810742 23.9874C0.276289 21.3976 0.304882 18.2462 0.886679 15.6249C1.77738 11.6116 3.99746 7.81632 7.03793 5.10929ZM0.47457 20.6835C0.460195 21.0595 0.448476 20.7519 0.448476 19.9999C0.448476 19.248 0.460195 18.9404 0.47457 19.3163C0.488867 19.6923 0.488867 20.3076 0.47457 20.6835Z" fill="#F9F9F9"/>
<path d="M38.2694 18.5618C39.423 18.5618 40.3477 17.5852 40.1507 16.4487C39.8155 14.5154 39.1864 12.6622 38.264 10.8593C37.3749 9.12148 36.2166 7.52601 34.7556 6.02648C31.9804 3.17812 28.6141 1.2907 24.7914 0.439838C24.5264 0.380862 24.1655 0.315094 23.7837 0.25309C22.6934 0.0760286 21.7995 0.90544 21.7995 2.01001V5.38624C21.7995 6.40577 22.5709 7.25831 23.5534 7.53028C25.0875 7.95489 26.7537 8.68269 27.915 9.51078C28.8635 10.187 30.2293 11.5528 30.9055 12.5012C31.7316 13.6599 32.4538 15.2932 32.8764 16.8082C33.1503 17.7902 34.0022 18.5618 35.0218 18.5618H38.2694Z" fill="#F9F9F9"/>
<path fill-rule="evenodd" clip-rule="evenodd" d="M13.027 12.5327C14.6696 10.8908 16.4654 9.96507 18.7757 9.56945C19.6022 9.42789 21.2133 9.43015 22.1082 9.57413C26.5736 10.2927 30.1336 13.8741 30.8523 18.3706C31.0082 19.3462 30.9664 21.1984 30.7679 22.1093C30.5939 22.9073 30.2193 23.9889 29.8885 24.6484C28.6117 27.1933 26.2043 29.2387 23.5059 30.0714C20.9685 30.8544 17.9938 30.5896 15.656 29.3727C12.3784 27.6666 10.3096 24.6116 9.94379 20.9374C9.63441 17.8305 10.7388 14.8201 13.027 12.5327ZM19.2445 15.2382V13.9374C19.2445 13.6613 19.4684 13.4374 19.7445 13.4374H21.0882C21.3644 13.4374 21.5882 13.6613 21.5882 13.9374V15.2187L21.9984 15.3169C22.2239 15.371 22.5316 15.4656 22.682 15.5272C22.8007 15.5758 23.0465 15.6909 23.288 15.8081C23.6697 15.9933 23.8026 16.3921 23.6115 16.7709C23.5667 16.8597 23.5183 16.9538 23.4671 17.0505L23.3498 17.2718C23.1512 17.6468 22.6898 17.7948 22.31 17.6055C20.8747 16.8901 19.482 16.8975 19.2429 17.622C19.0697 18.1466 19.4726 18.5519 20.4508 18.8372C22.4777 19.4282 23.2154 19.7623 23.6512 20.2865C24.1332 20.8662 24.3372 21.7919 24.1659 22.6224C24.0465 23.2019 23.9229 23.4442 23.528 23.8726C23.1361 24.2977 22.6856 24.5642 22.0687 24.7357L21.5882 24.8693V26.1405C21.5882 26.4167 21.3644 26.6405 21.0882 26.6405H19.7445C19.4684 26.6405 19.2445 26.4167 19.2445 26.1405V24.7904L18.8301 24.6977C18.4351 24.6093 17.6686 24.3012 17.0972 24.0383C16.7628 23.8844 16.6407 23.4893 16.8048 23.1598L17.1147 22.5377C17.3059 22.1539 17.799 22.0255 18.1854 22.2115C18.9524 22.5809 19.9415 22.8946 20.5638 22.8984C21.4809 22.9041 21.8226 22.7132 21.8226 22.1955C21.8226 21.6934 21.5361 21.513 19.9476 21.0152C18.1491 20.4517 17.5336 20.0762 17.1596 19.3148C16.9647 18.9178 16.9406 18.7857 16.9464 18.149C16.9522 17.5067 16.9793 17.3774 17.2022 16.9246C17.5615 16.1947 18.1979 15.6361 19.0308 15.3194L19.2445 15.2382Z" fill="#F9F9F9"/>
</g>
<defs>
<clipPath id="clip0_1351_12757">
<rect width="40" height="40" fill="white" transform="translate(0.416504)"/>
</clipPath>
</defs>
</svg>
