<svg width="41" height="40" viewBox="0 0 41 40" fill="none" xmlns="http://www.w3.org/2000/svg">
<rect x="29.0879" y="2.66284" width="3" height="38.3066" rx="1.5" transform="rotate(30 29.0879 2.66284)" fill="#F9F9F9"/>
<path fill-rule="evenodd" clip-rule="evenodd" d="M23.9822 8.65494C22.8265 8.44332 21.6354 8.33276 20.4183 8.33276C12.085 8.33276 4.96829 13.5161 2.08496 20.8328C3.8003 25.1856 7.01391 28.7833 11.0906 30.9838L13.9318 26.0628C12.7769 24.6325 12.0851 22.813 12.0851 20.8328C12.0851 16.2328 15.8185 12.4995 20.4185 12.4995C20.8561 12.4995 21.2859 12.5333 21.7055 12.5984L23.9822 8.65494ZM19.8175 15.8684C17.3355 16.1641 15.4185 18.2696 15.4185 20.8328C15.4185 21.5306 15.5605 22.1944 15.8173 22.797L19.8175 15.8684ZM21.0128 25.7981L25.017 18.8626C25.2755 19.4669 25.4185 20.1328 25.4185 20.8328C25.4185 23.3983 23.4981 25.5053 21.0128 25.7981ZM19.1259 29.0664C19.5472 29.1321 19.9788 29.1662 20.4185 29.1662C25.0185 29.1662 28.7518 25.4328 28.7518 20.8328C28.7518 18.8507 28.0586 17.0295 26.9016 15.5985L29.7416 10.6794C33.8204 12.8797 37.0357 16.4784 38.7516 20.8328C35.8683 28.1494 28.7516 33.3328 20.4183 33.3328C19.1994 33.3328 18.0066 33.2219 16.8492 33.0096L19.1259 29.0664Z" fill="#F9F9F9"/>
</svg>
