<svg width="41" height="40" viewBox="0 0 41 40" fill="none" xmlns="http://www.w3.org/2000/svg">
<g clip-path="url(#clip0_284_10271)">
<path fill-rule="evenodd" clip-rule="evenodd" d="M1.37422 0.0759891C1.03173 0.174916 0.59914 0.623604 0.499197 0.983523C0.44356 1.18372 0.417227 5.93589 0.416992 15.8252L0.416569 28.6036C0.416558 28.9473 0.900621 29.021 1.00296 28.6929L8.9984 3.06005C8.97113 0.893035 8.95456 0.799031 8.53002 0.402698C8.09751 -0.00121462 7.99733 -0.0118418 4.69727 -0.00426214C3.00902 -0.000355066 1.51363 0.0357463 1.37422 0.0759891ZM12.1736 1.54216C11.8533 1.68766 11.4788 2.06297 11.4045 2.31302C11.347 2.50646 5.43081 22.1424 3.45927 28.686C3.35854 29.0203 3.81724 29.2158 4.00379 28.9206L17.782 7.1206C18.3133 5.40665 19.6273 3.52937 17.782 2.92956C14.9374 2.00491 12.9231 1.39541 12.717 1.39697C12.5918 1.39791 12.3472 1.46323 12.1736 1.54216ZM21.8424 5.39085C21.5324 5.54424 20.8416 6.50749 13.0846 17.6004C9.78613 22.3175 7.05154 26.6847 5.75059 28.8079C5.57754 29.0903 5.89803 29.3783 6.15289 29.1668C10.569 25.5012 22.6797 14.9829 25.9292 12.4605C26.5796 11.5325 28.5405 10.3911 28.5441 9.96877C28.548 9.53094 28.4073 9.16 28.1473 8.92222C27.8033 8.60786 23.3543 5.51471 23.0385 5.37038C22.6248 5.18143 22.2527 5.18776 21.8424 5.39085ZM30.0258 11.9665C29.8359 12.0646 27.6912 13.691 25.2599 15.5805C22.8285 17.4701 17.8288 21.3539 14.1494 24.2112C11.8625 25.9871 9.84583 27.7747 8.64699 28.8734C8.40267 29.0973 8.63797 29.4779 8.94399 29.3507C13.4535 27.4766 27.2597 21.7645 33.2359 19.583C33.2359 19.583 35.2126 18.6236 35.3262 18.4152C35.5358 18.0309 35.5561 17.511 35.375 17.1609C35.2563 16.9314 32.499 13.3065 31.7995 12.4605C31.2614 11.8096 30.6558 11.641 30.0258 11.9665ZM35.8146 20.6303C35.6486 20.6987 18.0275 27.1401 12.0173 29.3313C11.698 29.4478 11.7956 29.9207 12.1354 29.9127L36.9826 29.3273C37.9855 28.9598 38.9024 28.6093 39.0202 28.5484C39.4976 28.3016 39.8732 27.5753 39.7626 27.1128C39.6484 26.635 37.6561 21.2638 37.5227 21.0741C37.2167 20.6389 36.3439 20.4121 35.8146 20.6303ZM1.404 31.516C1.00844 31.6571 0.682985 31.9767 0.531704 32.3727C0.426994 32.647 0.413007 33.1388 0.432699 35.8562C0.455438 39.0031 0.45661 39.0219 0.635319 39.3094C0.734246 39.4684 0.945228 39.6794 1.10417 39.7783L1.39329 39.958L5.55432 39.9801L9.71535 40.0023V35.7019V31.4015L5.7106 31.405C2.51478 31.4077 1.64491 31.4301 1.404 31.516ZM11.174 31.4537C11.1453 31.4823 11.1219 33.4163 11.1219 35.7514V39.9971H14.3257H16.5295V35.6993V31.4015H14.3778C12.6443 31.4015 11.2026 31.425 11.174 31.4537ZM19.0142 35.6993V39.9971H22.218H24.4218V35.6993V31.4015H22.218H19.0142V35.6993ZM26.8804 31.4537C26.8518 31.4823 26.8283 33.4163 26.8283 35.7514V39.9971H30.0321H32.2359V35.6993V31.4015H30.0842C28.3507 31.4015 26.909 31.425 26.8804 31.4537ZM34.7206 35.7035V40.0055L37.0844 39.9818C39.3947 39.9586 39.4547 39.954 39.7373 39.7783C39.8962 39.6794 40.1072 39.4684 40.2061 39.3094C40.3848 39.0219 40.386 39.0031 40.4087 35.8562C40.4287 33.1002 40.4155 32.6497 40.306 32.3631C40.1541 31.9652 39.7531 31.5956 39.3526 31.4844C39.1795 31.4363 38.161 31.4022 36.889 31.402L34.7206 31.4015V35.7035ZM3.1124 33.7738C2.29231 34.1574 1.86323 34.8353 1.86902 35.7384C1.87683 36.9533 2.78913 37.8488 4.00564 37.8359C4.60881 37.8294 4.98358 37.684 5.425 37.2852C5.84493 36.9058 6.05513 36.4721 6.10201 35.8882C6.17476 34.9814 5.73405 34.1909 4.93317 33.7917C4.38689 33.5195 3.67111 33.5125 3.1124 33.7738ZM3.5482 35.1984C2.86227 35.7755 3.71667 36.802 4.4215 36.2476C4.81041 35.9416 4.75454 35.3361 4.31648 35.1096C4.00251 34.9472 3.82185 34.9681 3.5482 35.1984Z" fill="#F9F9F9"/>
</g>
<defs>
<clipPath id="clip0_284_10271">
<rect width="40" height="40" fill="white" transform="translate(0.416504)"/>
</clipPath>
</defs>
</svg>
