<svg width="41" height="40" viewBox="0 0 41 40" fill="none" xmlns="http://www.w3.org/2000/svg">
<path d="M21.2267 0.8564C20.7793 0.408924 20.0538 0.408924 19.6063 0.8564L12.3142 8.14844C11.8668 8.59591 11.8668 9.32141 12.3142 9.76889C12.7617 10.2164 13.4872 10.2164 13.9347 9.76889L20.4165 3.28708L26.8983 9.76889C27.3458 10.2164 28.0713 10.2164 28.5188 9.76889C28.9662 9.32142 28.9662 8.59591 28.5188 8.14844L21.2267 0.8564ZM19.6063 39.1435C20.0538 39.591 20.7793 39.591 21.2267 39.1435L28.5188 31.8515C28.9662 31.404 28.9662 30.6785 28.5188 30.231C28.0713 29.7836 27.3458 29.7836 26.8983 30.231L20.4165 36.7128L13.9347 30.231C13.4872 29.7836 12.7617 29.7836 12.3142 30.231C11.8668 30.6785 11.8668 31.404 12.3142 31.8515L19.6063 39.1435ZM19.2707 1.66663L19.2707 38.3333L21.5623 38.3333L21.5623 1.66663L19.2707 1.66663Z" fill="#F9F9F9"/>
</svg>
