<svg width="41" height="40" viewBox="0 0 41 40" fill="none" xmlns="http://www.w3.org/2000/svg">
<g clip-path="url(#clip0_232_4425)">
<path fill-rule="evenodd" clip-rule="evenodd" d="M34.4693 4.05646C36.7384 6.63793 40.3661 11.0881 40.4197 11.3559C40.5486 11.9997 40.2566 12.1948 37.7585 13.133C31.1237 15.6251 30.8424 15.7212 30.473 15.6243C29.9014 15.4745 29.7836 15.1026 29.9919 14.1057L30.1693 13.2568L29.4669 13.1523C23.8189 12.3123 18.8226 13.464 15.643 18.2602C14.7982 19.5347 14.2995 21.8523 14.2995 23.3838C14.2995 24.5777 14.6307 26.8918 15.5265 28.5695C16.0583 29.5653 16.1242 29.9601 15.8185 30.3204C15.5094 30.6848 15.0257 30.7585 14.6406 30.4996C14.276 30.2545 13.4267 28.5518 12.9153 27.0407C12.2451 25.0609 11.9579 22.7652 12.1134 20.6316C12.2305 19.0243 13.0279 16.1269 13.7489 14.6889C16.0355 10.1288 19.8727 6.88707 24.5187 5.59052C26.4946 5.03904 28.9268 4.89483 31.1428 5.19777L32.2695 5.35179L32.4534 4.65064C32.6684 3.83083 32.9096 3.49221 33.3303 3.41944C33.7898 3.34008 33.8879 3.39493 34.4693 4.05646Z" fill="#F9F9F9"/>
<path fill-rule="evenodd" clip-rule="evenodd" d="M10.7077 13.9636C9.62721 16.2293 7.94762 22.1362 9.87354 27.6384C10.4334 30.1035 12.5465 34.7083 16.5207 33.407C17.6051 32.982 19.5717 31.4551 18.7628 28.747C18.4375 27.6579 18.1668 27.0329 17.9551 26.5442C17.5088 25.5139 17.3247 25.0889 17.4439 22.1966C17.6198 17.9322 23.1151 15.4264 27.1157 15.866C27.4218 17.197 28.9127 19.3381 32.4779 18.2701V38.329C32.4779 40.1444 31.0062 41.6161 29.1908 41.6161H8.11235C6.29691 41.6161 4.8252 40.1444 4.8252 38.329V17.2505C4.8252 15.4351 6.2969 13.9634 8.11235 13.9634H10.7077V13.9636Z" fill="#F9F9F9"/>
</g>
<defs>
<clipPath id="clip0_232_4425">
<rect width="40" height="40" fill="white" transform="translate(0.416504)"/>
</clipPath>
</defs>
</svg>
