<svg width="43" height="40" viewBox="0 0 43 40" fill="none" xmlns="http://www.w3.org/2000/svg">
<path d="M30.9333 4.24245C27.12 4.24892 23.6293 7.17143 22.3606 8.63187V8.63187C21.8223 9.12766 20.994 9.12908 20.454 8.6351V8.6351C19.1804 7.17897 15.6799 4.26834 11.8666 4.27481C8.05324 4.28128 5.4535 5.75712 3.29388 8.66422C0.567003 12.3349 1.01907 16.5428 3.31295 20.0388C5.33551 23.1213 14.1832 30.0469 19.5197 34.2356C20.6539 35.1258 22.2495 35.1231 23.3807 34.229C28.7031 30.0223 37.5276 23.0667 39.5398 19.9774C41.8219 16.4736 42.2599 12.2642 39.5207 8.60275C37.3514 5.703 34.7467 4.23598 30.9333 4.24245Z" stroke="#F9F9F9" stroke-width="2" stroke-linecap="square" stroke-linejoin="round"/>
</svg>
