<svg width="41" height="40" viewBox="0 0 41 40" fill="none" xmlns="http://www.w3.org/2000/svg">
<g clip-path="url(#clip0_230_3196)">
<path fill-rule="evenodd" clip-rule="evenodd" d="M20.4165 40C31.4622 40 40.4165 31.0457 40.4165 20C40.4165 8.9543 31.4622 0 20.4165 0C9.37081 0 0.416504 8.9543 0.416504 20C0.416504 31.0457 9.37081 40 20.4165 40ZM22.5589 6.69903C22.0929 6.23301 21.4586 6 20.656 6C19.8534 6 19.2062 6.23301 18.7143 6.69903C18.2482 7.16505 18.0152 7.82524 18.0152 8.67961C18.0152 9.53398 18.2482 10.1942 18.7143 10.6602C19.2062 11.1262 19.8534 11.3592 20.656 11.3592C21.4586 11.3592 22.0929 11.1262 22.5589 10.6602C23.0508 10.1942 23.2968 9.53398 23.2968 8.67961C23.2968 7.82524 23.0508 7.16505 22.5589 6.69903ZM23.2935 31.006C22.8706 30.8194 22.5978 30.4008 22.5978 29.9386V15.6715C22.5978 15.0272 22.0754 14.5049 21.4311 14.5049H17.8615C17.2172 14.5049 16.6948 15.0272 16.6948 15.6715V15.9371C16.6948 16.4099 16.9801 16.8359 17.4173 17.0159L18.6132 17.5083C19.0503 17.6883 19.3356 18.1144 19.3356 18.5871V29.9386C19.3356 30.4008 19.0627 30.8194 18.6399 31.006L17.3906 31.5571C16.9677 31.7437 16.6948 32.1623 16.6948 32.6245V32.8333C16.6948 33.4777 17.2172 34 17.8615 34H24.0719C24.7162 34 25.2385 33.4777 25.2385 32.8333V32.6245C25.2385 32.1623 24.9657 31.7437 24.5428 31.5571L23.2935 31.006Z" fill="white"/>
</g>
<defs>
<clipPath id="clip0_230_3196">
<rect width="40" height="40" fill="white" transform="translate(0.416504)"/>
</clipPath>
</defs>
</svg>
