<svg width="41" height="40" viewBox="0 0 41 40" fill="none" xmlns="http://www.w3.org/2000/svg">
<g clip-path="url(#clip0_230_3184)">
<path d="M20.4165 0C9.38857 0 0.416504 8.97206 0.416504 20C0.416504 28.5949 5.86657 35.9394 13.4916 38.7626C13.272 36.8047 13.3064 33.5982 13.6688 32.0457C14.0082 30.5875 15.8612 22.7526 15.8612 22.7526C15.8612 22.7526 15.3018 21.6323 15.3018 19.9777C15.3018 17.3776 16.8083 15.4375 18.6843 15.4375C20.2799 15.4375 21.0493 16.6355 21.0493 18.0708C21.0493 19.6757 20.0289 22.0731 19.5004 24.295C19.0596 26.1566 20.4338 27.6746 22.2688 27.6746C25.5916 27.6746 28.1457 24.1706 28.1457 19.1134C28.1457 14.6372 24.9301 11.5071 20.3374 11.5071C15.0185 11.5071 11.8963 15.4972 11.8963 19.621C11.8963 21.2274 12.5147 22.9503 13.2877 23.888C13.4401 24.0735 13.4624 24.2353 13.4172 24.4237C13.2755 25.014 12.9606 26.2839 12.898 26.5442C12.8167 26.8872 12.6269 26.9584 12.2731 26.7937C9.93762 25.7065 8.47787 22.2931 8.47787 19.5506C8.47787 13.6536 12.7621 8.23683 20.8314 8.23683C27.3174 8.23683 32.3573 12.8576 32.3573 19.035C32.3573 25.4785 28.2939 30.6637 22.6556 30.6637C20.761 30.6637 18.9805 29.6793 18.3715 28.5166C18.3715 28.5166 17.4338 32.086 17.2059 32.9611C16.8125 34.4745 15.1283 37.6098 14.2828 39.0339C16.2169 39.6587 18.2772 40 20.4165 40C31.4449 40 40.4165 31.0284 40.4165 20C40.4165 8.97206 31.4449 0 20.4165 0Z" fill="#F9F9F9"/>
</g>
<defs>
<clipPath id="clip0_230_3184">
<rect width="40" height="40" fill="white" transform="translate(0.416504)"/>
</clipPath>
</defs>
</svg>
