<svg width="41" height="41" viewBox="0 0 41 41" fill="none" xmlns="http://www.w3.org/2000/svg">
<path d="M20.1906 33.3304C19.262 33.3304 18.4938 32.607 18.442 31.6798C18.442 31.1106 18.442 30.6363 18.442 30.2568C18.442 27.6387 18.7913 25.5897 19.4899 24.1098C20.1884 22.592 21.3474 21.1691 22.9668 19.841C24.0782 18.8924 24.9355 17.8679 25.5388 16.7675C26.1738 15.6671 26.4914 14.377 26.4914 12.8972C26.4914 10.8861 25.9198 9.31139 24.7767 8.17305C23.6336 6.99677 22.173 6.40862 20.3948 6.40862C18.6484 6.40862 17.029 6.93985 15.5366 8.0023C14.623 8.66689 13.8274 9.50964 13.1498 10.5306C12.4773 11.5437 11.1334 11.9872 10.097 11.3513L9.75633 11.1422C9.02622 10.6942 8.64825 9.82555 8.92232 9.01396C9.3562 7.72914 9.97334 6.53816 10.7737 5.44104C11.8533 3.92325 13.2346 2.72799 14.9175 1.85527C16.6321 0.944594 18.6167 0.489258 20.8711 0.489258C23.6336 0.489258 25.9516 1.02048 27.825 2.08293C29.7302 3.14538 30.938 3.72716 32.4628 5.79466C32.9016 6.57698 33.8175 6.9586 34.446 11.0219C34.7835 13.2035 34.2377 15.9553 33.3486 17.7387C32.4913 19.5221 31.477 20.6137 29.7306 22.0176C28.8733 22.7006 26.9987 24.124 26.0778 24.7311C25.157 25.3383 24.0305 26.8798 23.3955 27.6387C22.7922 28.3976 22.4905 29.3841 22.4905 30.5983V30.7691C22.4905 31.1106 22.4905 31.528 22.4905 32.0213C22.4905 32.7283 21.9348 33.3304 21.2279 33.3304H20.1906Z" fill="white"/>
<path d="M18.5219 40.7643C18.7053 40.9215 18.928 41.0001 19.19 41.0001H21.6041C21.8923 41.0001 22.115 40.9215 22.2722 40.7643C22.4556 40.5809 22.5473 40.3582 22.5473 40.0962V37.6988C22.5473 37.4368 22.4556 37.2272 22.2722 37.07C22.115 36.8866 21.8923 36.7949 21.6041 36.7949H19.19C18.928 36.7949 18.7053 36.8866 18.5219 37.07C18.3647 37.2272 18.2861 37.4368 18.2861 37.6988V40.0962C18.2861 40.3582 18.3647 40.5809 18.5219 40.7643Z" fill="white"/>
</svg>
