<svg width="41" height="40" viewBox="0 0 41 40" fill="none" xmlns="http://www.w3.org/2000/svg">
<path fill-rule="evenodd" clip-rule="evenodd" d="M21.3522 2.43979C21.023 1.58354 19.8097 1.58332 19.4802 2.43942C17.139 8.52161 14.8762 14.2634 14.7037 14.2623L2.79384 15.1127C1.90958 15.1759 1.53724 16.2732 2.20072 16.8611C5.55875 19.8369 10.6875 24.4016 11.4008 25.0762C11.4591 25.1313 11.4756 25.1957 11.4565 25.2737C10.7524 28.1491 9.30439 34.1621 8.49092 37.5446C8.27922 38.4249 9.2538 39.1066 10.0113 38.6108L19.8614 32.164C20.1941 31.9462 20.6242 31.9462 20.9569 32.1641L30.808 38.6151C31.5662 39.1117 32.5408 38.4246 32.3271 37.5437C31.5796 34.4636 30.2916 29.1657 29.4333 25.6843C29.3441 25.3224 29.4638 24.9429 29.7433 24.6963L38.6278 16.8601C39.2928 16.2736 38.922 15.1758 38.0375 15.1127L26.125 14.2626C25.9438 14.2635 23.7108 8.57544 21.3522 2.43979Z" fill="#F9F9F9"/>
</svg>
