<svg width="41" height="40" viewBox="0 0 41 40" fill="none" xmlns="http://www.w3.org/2000/svg">
<path fill-rule="evenodd" clip-rule="evenodd" d="M33.022 16.1345C33.022 25.0454 25.7983 32.269 16.8875 32.269C7.9766 32.269 0.75293 25.0454 0.75293 16.1345C0.75293 7.22367 7.9766 0 16.8875 0C25.7983 0 33.022 7.22367 33.022 16.1345ZM27.0013 16.1345C27.0013 21.7203 22.4732 26.2484 16.8875 26.2484C11.3017 26.2484 6.77356 21.7203 6.77356 16.1345C6.77356 10.5488 11.3017 6.02063 16.8875 6.02063C22.4732 6.02063 27.0013 10.5488 27.0013 16.1345ZM12.921 5.65986C14.1434 4.77253 17.6293 3.4418 21.2956 5.70184C21.7658 5.99165 22.3818 5.84546 22.6716 5.37532C22.9615 4.90518 22.8153 4.28912 22.3451 3.99932C17.8032 1.1996 13.4281 2.8204 11.7461 4.0413C11.2992 4.36573 11.1999 4.99106 11.5243 5.43801C11.8487 5.88496 12.474 5.98428 12.921 5.65986Z" fill="#F9F9F9"/>
<rect x="28.4102" y="31.437" width="3.79552" height="11.5072" rx="1" transform="rotate(-45 28.4102 31.437)" fill="#F9F9F9"/>
</svg>
