<svg width="41" height="40" viewBox="0 0 41 40" fill="none" xmlns="http://www.w3.org/2000/svg">
<path fill-rule="evenodd" clip-rule="evenodd" d="M11.5704 7.13785C8.69458 10.0137 8.69458 31.0739 11.5704 33.9498C14.4206 36.8 26.3501 36.8 29.2002 33.9498C32.0761 31.0739 32.0761 10.0137 29.2002 7.13785C26.3501 4.28771 14.4206 4.28771 11.5704 7.13785ZM4.22469 10.8107C1.32129 13.7141 1.3874 27.8326 4.31651 30.2641C6.11255 31.7534 6.61206 29.6048 6.61206 20.3877C6.61206 17.0046 6.58702 13.9424 6.5631 11.7885C6.54347 10.0214 5.4743 9.56112 4.22469 10.8107ZM13.0396 20.5438V32.4807H20.3853H27.7311V20.5438V8.607H20.3853H13.0396V20.5438ZM34.1586 20.5438C34.1586 29.636 34.6581 31.7534 36.4541 30.2641C37.7176 29.2155 38.7497 24.8411 38.7497 20.5438C38.7497 16.2466 37.7176 11.8722 36.4541 10.8236C34.6581 9.33423 34.1586 11.4516 34.1586 20.5438Z" fill="#F9F9F9"/>
</svg>
