<svg width="41" height="40" viewBox="0 0 41 40" fill="none" xmlns="http://www.w3.org/2000/svg">
<g clip-path="url(#clip0_284_10270)">
<path d="M0.416504 23.3519C0.416504 22.1483 1.39219 21.1726 2.59575 21.1726H17.129C18.3326 21.1726 19.3083 22.1483 19.3083 23.3519V37.8852C19.3083 39.0888 18.3326 40.0644 17.129 40.0644H2.59575C1.39218 40.0644 0.416504 39.0887 0.416504 37.8852V23.3519Z" fill="#F9F9F9"/>
<path fill-rule="evenodd" clip-rule="evenodd" d="M23.7041 21.1726C22.5006 21.1726 21.5249 22.1483 21.5249 23.3519V37.8852C21.5249 39.0887 22.5006 40.0644 23.7041 40.0644H38.2374C39.441 40.0644 40.4167 39.0888 40.4167 37.8852V23.3519C40.4167 22.1483 39.441 21.1726 38.2374 21.1726H23.7041ZM26.085 23.5535C24.8815 23.5535 23.9058 24.5292 23.9058 25.7327V35.5043C23.9058 36.7078 24.8815 37.6835 26.085 37.6835H35.8565C37.0601 37.6835 38.0358 36.7078 38.0358 35.5043V25.7327C38.0358 24.5292 37.0601 23.5535 35.8565 23.5535H26.085Z" fill="#F9F9F9"/>
<path fill-rule="evenodd" clip-rule="evenodd" d="M23.7041 -0.0644531C22.5006 -0.0644531 21.5249 0.911226 21.5249 2.11479V16.6481C21.5249 17.8517 22.5006 18.8274 23.7041 18.8274H38.2374C39.441 18.8274 40.4167 17.8517 40.4167 16.6481V2.11479C40.4167 0.911228 39.441 -0.0644531 38.2374 -0.0644531H23.7041ZM26.085 2.31644C24.8815 2.31644 23.9058 3.29212 23.9058 4.49568V14.2672C23.9058 15.4708 24.8815 16.4465 26.085 16.4465H35.8565C37.0601 16.4465 38.0358 15.4708 38.0358 14.2672V4.49568C38.0358 3.29212 37.0601 2.31644 35.8565 2.31644H26.085Z" fill="#F9F9F9"/>
<path d="M32.4253 1.08651L34.8955 0.555119L23.16 12.2905L22.3896 11.5201L23.086 9.28281L24.5531 7.81585L27.4869 4.882L30.4208 1.94815L32.4253 1.08651Z" fill="#F9F9F9"/>
<path d="M38.126 0.631348L38.2747 2.59041L38.8602 2.97905L36.1377 5.70154L32.6085 9.23078L29.0792 12.76L24.7795 17.0597L23.4618 16.2495L24.009 14.7483L38.126 0.631348Z" fill="#F9F9F9"/>
<path d="M38.876 5.74658L39.2321 7.49831L39.0565 8.64795L37.6961 10.0084L34.9753 12.7292L32.2545 15.45L30.8941 16.8104L29.7239 17.2536L28.7632 17.4003L27.9927 16.6298L38.876 5.74658Z" fill="#F9F9F9"/>
<path fill-rule="evenodd" clip-rule="evenodd" d="M0.416504 2.11503C0.416504 0.91147 1.39219 -0.064209 2.59575 -0.064209H17.129C18.3326 -0.064209 19.3083 0.911472 19.3083 2.11504V16.6484C19.3083 17.8519 18.3326 18.8276 17.129 18.8276H2.59575C1.39218 18.8276 0.416504 17.8519 0.416504 16.6484V2.11503ZM12.4795 3.95693C12.4795 5.40217 11.3079 6.57378 9.86265 6.57378C8.4174 6.57378 7.2458 5.40217 7.2458 3.95693C7.2458 2.51168 8.4174 1.34008 9.86265 1.34008C11.3079 1.34008 12.4795 2.51168 12.4795 3.95693ZM9.86265 16.49C11.3079 16.49 12.4795 15.3184 12.4795 13.8732C12.4795 12.4279 11.3079 11.2563 9.86265 11.2563C8.4174 11.2563 7.2458 12.4279 7.2458 13.8732C7.2458 15.3184 8.4174 16.49 9.86265 16.49ZM14.8207 11.5319C13.3755 11.5319 12.2039 10.3603 12.2039 8.91509C12.2039 7.46985 13.3755 6.29824 14.8207 6.29824C16.266 6.29824 17.4376 7.46985 17.4376 8.91509C17.4376 10.3603 16.266 11.5319 14.8207 11.5319ZM2.2877 8.91503C2.2877 10.3603 3.4593 11.5319 4.90455 11.5319C6.34979 11.5319 7.5214 10.3603 7.5214 8.91503C7.5214 7.46978 6.34979 6.29818 4.90455 6.29818C3.4593 6.29818 2.2877 7.46978 2.2877 8.91503Z" fill="#F9F9F9"/>
<circle cx="9.86244" cy="8.93642" r="3.9435" fill="#F9F9F9"/>
</g>
<defs>
<clipPath id="clip0_284_10270">
<rect width="40" height="40" fill="white" transform="translate(0.416504)"/>
</clipPath>
</defs>
</svg>
