<svg width="41" height="40" viewBox="0 0 41 40" fill="none" xmlns="http://www.w3.org/2000/svg">
<circle cx="20.4165" cy="20" r="20" fill="#F9F9F9"/>
<path d="M28.9644 15.2141H11.1976L12.0122 31.0199C12.0694 32.1296 12.9857 33 14.0969 33H26.0651C27.1762 33 28.0926 32.1296 28.1498 31.0199L28.9644 15.2141Z" fill="#0C0C0C"/>
<path d="M30.1647 12.8912C30.1647 11.1619 28.7628 9.76001 27.0335 9.76001H13.1312C11.4019 9.76001 10 11.1619 10 12.8912V13.6619H30.1647V12.8912Z" fill="#0C0C0C"/>
<path fill-rule="evenodd" clip-rule="evenodd" d="M16.582 10.5002C16.582 8.56699 18.149 7 20.0822 7H20.0819C22.015 7 23.582 8.56699 23.582 10.5002L16.582 10.5002ZM18.3387 10.2166C18.3387 9.25386 19.119 8.47351 20.0817 8.47351H20.0815C21.0443 8.47351 21.8246 9.25386 21.8246 10.2166L18.3387 10.2166Z" fill="#0C0C0C"/>
</svg>
