<svg width="41" height="40" viewBox="0 0 41 40" fill="none" xmlns="http://www.w3.org/2000/svg">
<path fill-rule="evenodd" clip-rule="evenodd" d="M20.4163 8.33325C12.083 8.33325 4.96634 13.5166 2.08301 20.8333C4.96634 28.1499 12.083 33.3333 20.4163 33.3333C28.7497 33.3333 35.8663 28.1499 38.7497 20.8333C35.8663 13.5166 28.7497 8.33325 20.4163 8.33325ZM20.4163 29.1664C15.8163 29.1664 12.0829 25.4331 12.0829 20.8331C12.0829 16.2331 15.8163 12.4998 20.4163 12.4998C25.0163 12.4998 28.7496 16.2331 28.7496 20.8331C28.7496 25.4331 25.0163 29.1664 20.4163 29.1664ZM20.4163 15.8331C17.6496 15.8331 15.4163 18.0664 15.4163 20.8331C15.4163 23.5998 17.6496 25.8331 20.4163 25.8331C23.1829 25.8331 25.4163 23.5998 25.4163 20.8331C25.4163 18.0664 23.1829 15.8331 20.4163 15.8331Z" fill="#F9F9F9"/>
</svg>
